<svg width="61" height="22" viewBox="0 0 61 22" fill="none" xmlns="http://www.w3.org/2000/svg">
<path d="M9.375 19.25C9.375 19.6208 9.26503 19.9834 9.059 20.2917C8.85298 20.6 8.56014 20.8404 8.21753 20.9823C7.87492 21.1242 7.49792 21.1613 7.1342 21.089C6.77049 21.0166 6.4364 20.838 6.17417 20.5758C5.91195 20.3136 5.73337 19.9795 5.66103 19.6158C5.58868 19.2521 5.62581 18.8751 5.76773 18.5325C5.90964 18.1899 6.14996 17.897 6.45831 17.691C6.76665 17.485 7.12916 17.375 7.5 17.375C7.99728 17.375 8.47419 17.5725 8.82582 17.9242C9.17745 18.2758 9.375 18.7527 9.375 19.25ZM17.25 17.375C16.8792 17.375 16.5166 17.485 16.2083 17.691C15.9 17.897 15.6596 18.1899 15.5177 18.5325C15.3758 18.8751 15.3387 19.2521 15.411 19.6158C15.4834 19.9795 15.662 20.3136 15.9242 20.5758C16.1864 20.838 16.5205 21.0166 16.8842 21.089C17.2479 21.1613 17.6249 21.1242 17.9675 20.9823C18.3101 20.8404 18.603 20.6 18.809 20.2917C19.015 19.9834 19.125 19.6208 19.125 19.25C19.125 18.7527 18.9275 18.2758 18.5758 17.9242C18.2242 17.5725 17.7473 17.375 17.25 17.375ZM22.0753 6.08094L19.5169 14.3966C19.3535 14.9343 19.0211 15.4051 18.569 15.739C18.1169 16.0729 17.5692 16.2521 17.0072 16.25H7.77469C7.2046 16.2482 6.65046 16.0616 6.1953 15.7183C5.74015 15.3751 5.40848 14.8936 5.25 14.3459L2.04469 3.125H1.125C0.826631 3.125 0.540483 3.00647 0.329505 2.7955C0.118526 2.58452 0 2.29837 0 2C0 1.70163 0.118526 1.41548 0.329505 1.2045C0.540483 0.993526 0.826631 0.875 1.125 0.875H2.32687C2.73407 0.876258 3.12988 1.00951 3.45493 1.25478C3.77998 1.50004 4.01674 1.84409 4.12969 2.23531L4.81312 4.625H21C21.1761 4.62499 21.3497 4.6663 21.5069 4.74561C21.664 4.82492 21.8004 4.94001 21.905 5.08164C22.0096 5.22326 22.0795 5.38746 22.1091 5.56102C22.1387 5.73458 22.1271 5.91266 22.0753 6.08094ZM19.4766 6.875H5.45531L7.41375 13.7281C7.43617 13.8065 7.48354 13.8755 7.54867 13.9245C7.6138 13.9736 7.69315 14.0001 7.77469 14H17.0072C17.0875 14.0002 17.1656 13.9746 17.2303 13.927C17.2949 13.8794 17.3426 13.8123 17.3662 13.7356L19.4766 6.875Z" fill="black"/>
<path d="M50 0.875C47.9975 0.875 46.0399 1.46882 44.3749 2.58137C42.7098 3.69392 41.4121 5.27523 40.6457 7.12533C39.8794 8.97543 39.6789 11.0112 40.0696 12.9753C40.4602 14.9393 41.4245 16.7435 42.8405 18.1595C44.2566 19.5755 46.0607 20.5398 48.0247 20.9305C49.9888 21.3211 52.0246 21.1206 53.8747 20.3543C55.7248 19.5879 57.3061 18.2902 58.4186 16.6251C59.5312 14.9601 60.125 13.0025 60.125 11C60.122 8.3156 59.0543 5.74199 57.1562 3.84383C55.258 1.94567 52.6844 0.877978 50 0.875ZM45.4597 17.4284C45.9819 16.7143 46.6653 16.1335 47.4542 15.7331C48.2431 15.3327 49.1153 15.124 50 15.124C50.8847 15.124 51.7569 15.3327 52.5458 15.7331C53.3347 16.1335 54.0181 16.7143 54.5403 17.4284C53.2134 18.3695 51.6268 18.875 50 18.875C48.3732 18.875 46.7867 18.3695 45.4597 17.4284ZM47.375 10.25C47.375 9.73082 47.529 9.22331 47.8174 8.79163C48.1058 8.35995 48.5158 8.0235 48.9955 7.82482C49.4751 7.62614 50.0029 7.57415 50.5121 7.67544C51.0213 7.77672 51.489 8.02673 51.8562 8.39384C52.2233 8.76096 52.4733 9.22869 52.5746 9.73789C52.6759 10.2471 52.6239 10.7749 52.4252 11.2545C52.2265 11.7342 51.8901 12.1442 51.4584 12.4326C51.0267 12.721 50.5192 12.875 50 12.875C49.3038 12.875 48.6361 12.5984 48.1438 12.1062C47.6516 11.6139 47.375 10.9462 47.375 10.25ZM56.1875 15.8694C55.4583 14.9419 54.5289 14.1914 53.4688 13.6737C54.1444 12.9896 54.6026 12.1208 54.7858 11.1769C54.9689 10.2329 54.8688 9.25583 54.498 8.36861C54.1273 7.4814 53.5024 6.72364 52.702 6.19068C51.9017 5.65771 50.9616 5.37334 50 5.37334C49.0384 5.37334 48.0983 5.65771 47.298 6.19068C46.4976 6.72364 45.8727 7.4814 45.502 8.36861C45.1312 9.25583 45.0311 10.2329 45.2142 11.1769C45.3974 12.1208 45.8556 12.9896 46.5313 13.6737C45.4711 14.1914 44.5417 14.9419 43.8125 15.8694C42.8966 14.7083 42.3261 13.3129 42.1664 11.8427C42.0067 10.3725 42.2641 8.88711 42.9093 7.55644C43.5544 6.22578 44.5612 5.10366 45.8144 4.31855C47.0676 3.53343 48.5165 3.11703 49.9953 3.11703C51.4741 3.11703 52.9231 3.53343 54.1762 4.31855C55.4294 5.10366 56.4362 6.22578 57.0814 7.55644C57.7265 8.88711 57.984 10.3725 57.8242 11.8427C57.6645 13.3129 57.094 14.7083 56.1781 15.8694H56.1875Z" fill="black"/>
</svg>
